<!--?xml version="1.0" standalone="no"?-->
              <svg id="sw-js-blob-svg" viewBox="0 0 100 100" xmlns="http://www.w3.org/2000/svg" version="1.1">
                    <defs> 
                        <linearGradient id="sw-gradient" x1="0" x2="1" y1="1" y2="0">
                            <stop id="stop1" stop-color="rgba(239.252, 67.503, 96.128, 1)" offset="0%"></stop>
                            <stop id="stop2" stop-color="rgba(255, 39, 75, 1)" offset="100%"></stop>
                        </linearGradient>
                    </defs>
                <path fill="url(#sw-gradient)" d="M26.7,-29.8C34.6,-25.2,40.9,-16.8,41.6,-8C42.3,0.7,37.5,9.8,32.1,18.1C26.8,26.4,21,34,13.4,36.8C5.8,39.5,-3.5,37.4,-10.6,33.1C-17.7,28.8,-22.6,22.4,-28.1,15.1C-33.6,7.9,-39.6,-0.1,-38.9,-7.4C-38.3,-14.8,-31,-21.6,-23.4,-26.2C-15.8,-30.7,-7.9,-33.2,0.8,-34.1C9.4,-35,18.9,-34.3,26.7,-29.8Z" width="100%" height="100%" transform="translate(50 50)" stroke-width="0" style="transition: all 0.3s ease 0s;"></path>
              </svg>